<mxfile host="app.diagrams.net" agent="Mozilla/5.0 (Windows NT 10.0; Win64; x64; rv:143.0) Gecko/20100101 Firefox/143.0" version="28.2.1">
  <diagram name="PÃ¡gina-1" id="HDXa31TG4p9EnJkbFQCH">
    <mxGraphModel dx="1245" dy="683" grid="1" gridSize="1" guides="1" tooltips="1" connect="1" arrows="1" fold="1" page="1" pageScale="1" pageWidth="827" pageHeight="1169" math="1" shadow="0">
      <root>
        <mxCell id="0" />
        <mxCell id="1" parent="0" />
        <mxCell id="8GcMBOhhkafH-5VDX_pW-36" value="" style="rounded=1;whiteSpace=wrap;html=1;rotation=-225;gradientColor=#333333;gradientDirection=north;fillColor=#CCCCCC;" vertex="1" parent="1">
          <mxGeometry x="354" y="290" width="120" height="10" as="geometry" />
        </mxCell>
        <mxCell id="8GcMBOhhkafH-5VDX_pW-31" style="edgeStyle=orthogonalEdgeStyle;rounded=0;orthogonalLoop=1;jettySize=auto;html=1;exitX=1;exitY=0.5;exitDx=0;exitDy=0;entryX=0;entryY=0.8;entryDx=0;entryDy=0;endArrow=none;endFill=0;strokeWidth=2;" edge="1" parent="1" source="8GcMBOhhkafH-5VDX_pW-2" target="8GcMBOhhkafH-5VDX_pW-30">
          <mxGeometry relative="1" as="geometry" />
        </mxCell>
        <mxCell id="8GcMBOhhkafH-5VDX_pW-32" style="edgeStyle=orthogonalEdgeStyle;rounded=0;orthogonalLoop=1;jettySize=auto;html=1;exitX=0;exitY=0.5;exitDx=0;exitDy=0;entryX=0;entryY=0.8;entryDx=0;entryDy=0;endArrow=none;endFill=0;strokeWidth=2;" edge="1" parent="1" source="8GcMBOhhkafH-5VDX_pW-2" target="8GcMBOhhkafH-5VDX_pW-5">
          <mxGeometry relative="1" as="geometry" />
        </mxCell>
        <mxCell id="8GcMBOhhkafH-5VDX_pW-2" value="" style="pointerEvents=1;verticalLabelPosition=bottom;shadow=0;dashed=0;align=center;html=1;verticalAlign=top;shape=mxgraph.electrical.miscellaneous.batteryStack;direction=north;strokeWidth=2;" vertex="1" parent="1">
          <mxGeometry x="60" y="170" width="60" height="100" as="geometry" />
        </mxCell>
        <mxCell id="8GcMBOhhkafH-5VDX_pW-28" style="edgeStyle=orthogonalEdgeStyle;rounded=0;orthogonalLoop=1;jettySize=auto;html=1;exitX=1;exitY=0.8;exitDx=0;exitDy=0;strokeWidth=2;endArrow=none;endFill=0;" edge="1" parent="1">
          <mxGeometry relative="1" as="geometry">
            <mxPoint x="308" y="370" as="targetPoint" />
            <mxPoint x="223" y="370" as="sourcePoint" />
          </mxGeometry>
        </mxCell>
        <mxCell id="8GcMBOhhkafH-5VDX_pW-5" value="" style="html=1;shape=mxgraph.electrical.electro-mechanical.singleSwitch;aspect=fixed;elSwitchState=off;strokeWidth=2;" vertex="1" parent="1">
          <mxGeometry x="149" y="354" width="75" height="20" as="geometry" />
        </mxCell>
        <mxCell id="8GcMBOhhkafH-5VDX_pW-26" style="edgeStyle=orthogonalEdgeStyle;rounded=0;orthogonalLoop=1;jettySize=auto;html=1;exitX=1;exitY=0.5;exitDx=0;exitDy=0;exitPerimeter=0;strokeWidth=2;endArrow=none;endFill=0;" edge="1" parent="1" source="8GcMBOhhkafH-5VDX_pW-6">
          <mxGeometry relative="1" as="geometry">
            <mxPoint x="490" y="70" as="targetPoint" />
            <Array as="points">
              <mxPoint x="680" y="70" />
            </Array>
          </mxGeometry>
        </mxCell>
        <mxCell id="8GcMBOhhkafH-5VDX_pW-27" style="edgeStyle=orthogonalEdgeStyle;rounded=0;orthogonalLoop=1;jettySize=auto;html=1;exitX=0;exitY=0.5;exitDx=0;exitDy=0;exitPerimeter=0;strokeWidth=2;endArrow=none;endFill=0;" edge="1" parent="1" source="8GcMBOhhkafH-5VDX_pW-6">
          <mxGeometry relative="1" as="geometry">
            <mxPoint x="490" y="370" as="targetPoint" />
            <Array as="points">
              <mxPoint x="680" y="370" />
            </Array>
          </mxGeometry>
        </mxCell>
        <mxCell id="8GcMBOhhkafH-5VDX_pW-6" value="" style="pointerEvents=1;verticalLabelPosition=bottom;shadow=0;dashed=0;align=center;html=1;verticalAlign=top;shape=mxgraph.electrical.resistors.variable_resistor_1;rotation=-90;flipV=1;strokeWidth=2;" vertex="1" parent="1">
          <mxGeometry x="620" y="180" width="120" height="80" as="geometry" />
        </mxCell>
        <mxCell id="8GcMBOhhkafH-5VDX_pW-24" style="edgeStyle=orthogonalEdgeStyle;rounded=0;orthogonalLoop=1;jettySize=auto;html=1;exitX=1;exitY=0.645;exitDx=0;exitDy=0;exitPerimeter=0;entryX=0.5;entryY=1;entryDx=0;entryDy=0;strokeWidth=2;endArrow=none;endFill=0;" edge="1" parent="1" source="8GcMBOhhkafH-5VDX_pW-7" target="8GcMBOhhkafH-5VDX_pW-9">
          <mxGeometry relative="1" as="geometry">
            <Array as="points">
              <mxPoint x="308" y="370" />
              <mxPoint x="490" y="370" />
            </Array>
          </mxGeometry>
        </mxCell>
        <mxCell id="8GcMBOhhkafH-5VDX_pW-7" value="" style="pointerEvents=1;verticalLabelPosition=bottom;shadow=0;dashed=0;align=center;html=1;verticalAlign=top;shape=mxgraph.electrical.inductors.inductor_5;rotation=90;strokeWidth=2;" vertex="1" parent="1">
          <mxGeometry x="260" y="276" width="100" height="14" as="geometry" />
        </mxCell>
        <mxCell id="8GcMBOhhkafH-5VDX_pW-25" style="edgeStyle=orthogonalEdgeStyle;rounded=0;orthogonalLoop=1;jettySize=auto;html=1;exitX=1;exitY=0.25;exitDx=0;exitDy=0;exitPerimeter=0;entryX=0.5;entryY=0;entryDx=0;entryDy=0;strokeWidth=2;endArrow=none;endFill=0;" edge="1" parent="1" source="8GcMBOhhkafH-5VDX_pW-8" target="8GcMBOhhkafH-5VDX_pW-9">
          <mxGeometry relative="1" as="geometry" />
        </mxCell>
        <mxCell id="8GcMBOhhkafH-5VDX_pW-8" value="" style="pointerEvents=1;verticalLabelPosition=bottom;shadow=0;dashed=0;align=center;html=1;verticalAlign=top;shape=mxgraph.electrical.resistors.potentiometer_1;rotation=-90;strokeWidth=2;" vertex="1" parent="1">
          <mxGeometry x="270" y="120" width="100" height="40" as="geometry" />
        </mxCell>
        <mxCell id="8GcMBOhhkafH-5VDX_pW-16" value="" style="group;strokeWidth=2;" vertex="1" connectable="0" parent="1">
          <mxGeometry x="440" y="160" width="100" height="120" as="geometry" />
        </mxCell>
        <mxCell id="8GcMBOhhkafH-5VDX_pW-9" value="" style="rounded=0;whiteSpace=wrap;html=1;fillStyle=solid;fillColor=#000000;" vertex="1" parent="8GcMBOhhkafH-5VDX_pW-16">
          <mxGeometry x="30" width="40" height="120" as="geometry" />
        </mxCell>
        <mxCell id="8GcMBOhhkafH-5VDX_pW-1" value="&lt;font style=&quot;font-size: 56px;&quot;&gt;&lt;sup&gt;&lt;font style=&quot;line-height: 80%;&quot;&gt;G&lt;/font&gt;&lt;/sup&gt;&lt;/font&gt;" style="verticalLabelPosition=middle;shadow=0;dashed=0;align=center;html=1;verticalAlign=middle;strokeWidth=2;shape=ellipse;fontSize=32;perimeter=ellipsePerimeter;" vertex="1" parent="8GcMBOhhkafH-5VDX_pW-16">
          <mxGeometry y="10" width="100" height="100" as="geometry" />
        </mxCell>
        <mxCell id="8GcMBOhhkafH-5VDX_pW-15" value="" style="group" vertex="1" connectable="0" parent="8GcMBOhhkafH-5VDX_pW-16">
          <mxGeometry x="30" y="75" width="40" height="7" as="geometry" />
        </mxCell>
        <mxCell id="8GcMBOhhkafH-5VDX_pW-10" value="" style="endArrow=none;html=1;rounded=0;" edge="1" parent="8GcMBOhhkafH-5VDX_pW-15">
          <mxGeometry width="50" height="50" relative="1" as="geometry">
            <mxPoint x="40" as="sourcePoint" />
            <mxPoint as="targetPoint" />
          </mxGeometry>
        </mxCell>
        <mxCell id="8GcMBOhhkafH-5VDX_pW-11" value="" style="endArrow=none;html=1;rounded=0;" edge="1" parent="8GcMBOhhkafH-5VDX_pW-15">
          <mxGeometry width="50" height="50" relative="1" as="geometry">
            <mxPoint x="10" y="7" as="sourcePoint" />
            <mxPoint y="7" as="targetPoint" />
          </mxGeometry>
        </mxCell>
        <mxCell id="8GcMBOhhkafH-5VDX_pW-12" value="" style="endArrow=none;html=1;rounded=0;" edge="1" parent="8GcMBOhhkafH-5VDX_pW-15">
          <mxGeometry width="50" height="50" relative="1" as="geometry">
            <mxPoint x="24" y="7" as="sourcePoint" />
            <mxPoint x="14" y="7" as="targetPoint" />
          </mxGeometry>
        </mxCell>
        <mxCell id="8GcMBOhhkafH-5VDX_pW-13" value="" style="endArrow=none;html=1;rounded=0;" edge="1" parent="8GcMBOhhkafH-5VDX_pW-15">
          <mxGeometry width="50" height="50" relative="1" as="geometry">
            <mxPoint x="40" y="7" as="sourcePoint" />
            <mxPoint x="30" y="7" as="targetPoint" />
          </mxGeometry>
        </mxCell>
        <mxCell id="8GcMBOhhkafH-5VDX_pW-19" value="" style="rounded=0;whiteSpace=wrap;html=1;strokeColor=none;" vertex="1" parent="1">
          <mxGeometry x="300" y="173" width="20" height="20" as="geometry" />
        </mxCell>
        <mxCell id="8GcMBOhhkafH-5VDX_pW-21" value="" style="endArrow=none;html=1;rounded=0;strokeWidth=3;" edge="1" parent="1">
          <mxGeometry width="50" height="50" relative="1" as="geometry">
            <mxPoint x="320" y="188" as="sourcePoint" />
            <mxPoint x="320" y="178" as="targetPoint" />
          </mxGeometry>
        </mxCell>
        <mxCell id="8GcMBOhhkafH-5VDX_pW-29" style="edgeStyle=orthogonalEdgeStyle;rounded=0;orthogonalLoop=1;jettySize=auto;html=1;exitX=1;exitY=0.8;exitDx=0;exitDy=0;strokeWidth=2;endArrow=none;endFill=0;" edge="1" parent="1">
          <mxGeometry relative="1" as="geometry">
            <mxPoint x="309" y="70" as="targetPoint" />
            <mxPoint x="224" y="70" as="sourcePoint" />
          </mxGeometry>
        </mxCell>
        <mxCell id="8GcMBOhhkafH-5VDX_pW-30" value="" style="html=1;shape=mxgraph.electrical.electro-mechanical.singleSwitch;aspect=fixed;elSwitchState=off;strokeWidth=2;" vertex="1" parent="1">
          <mxGeometry x="150" y="54" width="75" height="20" as="geometry" />
        </mxCell>
        <mxCell id="8GcMBOhhkafH-5VDX_pW-33" value="" style="endArrow=none;dashed=1;html=1;rounded=0;entryX=0.53;entryY=0.389;entryDx=0;entryDy=0;entryPerimeter=0;exitX=0.541;exitY=0.311;exitDx=0;exitDy=0;exitPerimeter=0;" edge="1" parent="1" source="8GcMBOhhkafH-5VDX_pW-5" target="8GcMBOhhkafH-5VDX_pW-30">
          <mxGeometry width="50" height="50" relative="1" as="geometry">
            <mxPoint x="187.82499999999993" y="361" as="sourcePoint" />
            <mxPoint x="187.85000000000002" y="62.860000000000014" as="targetPoint" />
          </mxGeometry>
        </mxCell>
        <mxCell id="8GcMBOhhkafH-5VDX_pW-37" value="" style="verticalLabelPosition=bottom;shadow=0;dashed=0;align=center;html=1;verticalAlign=top;shape=mxgraph.electrical.rot_mech.verticalLabelPosition=bottom;shadow=0;dashed=0;align=center;fillColor=strokeColor;html=1;verticalAlign=top;strokeWidth=1;shape=mxgraph.electrical.rot_mech.rotation;rotation=-135;" vertex="1" parent="1">
          <mxGeometry x="370" y="280" width="63.93" height="43.7" as="geometry" />
        </mxCell>
        <mxCell id="8GcMBOhhkafH-5VDX_pW-41" value="" style="shape=ellipse;fillColor=#000000;strokeColor=none;html=1;sketch=0;" vertex="1" parent="1">
          <mxGeometry x="306.5" y="91" width="7" height="7" as="geometry" />
        </mxCell>
        <mxCell id="8GcMBOhhkafH-5VDX_pW-42" value="" style="shape=ellipse;fillColor=#000000;strokeColor=none;html=1;sketch=0;" vertex="1" parent="1">
          <mxGeometry x="280" y="179.5" width="7" height="7" as="geometry" />
        </mxCell>
        <mxCell id="8GcMBOhhkafH-5VDX_pW-45" value="" style="endArrow=none;html=1;rounded=0;entryX=1;entryY=0.5;entryDx=0;entryDy=0;strokeWidth=2;" edge="1" parent="1" target="8GcMBOhhkafH-5VDX_pW-19">
          <mxGeometry width="50" height="50" relative="1" as="geometry">
            <mxPoint x="266" y="371" as="sourcePoint" />
            <mxPoint x="267" y="175" as="targetPoint" />
            <Array as="points">
              <mxPoint x="266" y="183" />
            </Array>
          </mxGeometry>
        </mxCell>
        <mxCell id="8GcMBOhhkafH-5VDX_pW-46" value="" style="shape=ellipse;fillColor=#000000;strokeColor=none;html=1;sketch=0;" vertex="1" parent="1">
          <mxGeometry x="344" y="180" width="7" height="7" as="geometry" />
        </mxCell>
        <mxCell id="8GcMBOhhkafH-5VDX_pW-48" style="edgeStyle=orthogonalEdgeStyle;rounded=0;orthogonalLoop=1;jettySize=auto;html=1;exitX=0.5;exitY=1;exitDx=0;exitDy=0;exitPerimeter=0;entryX=0;entryY=0.645;entryDx=0;entryDy=0;entryPerimeter=0;strokeWidth=2;endArrow=none;endFill=0;" edge="1" parent="1" source="8GcMBOhhkafH-5VDX_pW-8" target="8GcMBOhhkafH-5VDX_pW-7">
          <mxGeometry relative="1" as="geometry">
            <Array as="points">
              <mxPoint x="348" y="140" />
              <mxPoint x="348" y="212" />
              <mxPoint x="308" y="212" />
            </Array>
          </mxGeometry>
        </mxCell>
        <mxCell id="8GcMBOhhkafH-5VDX_pW-51" value="" style="shape=ellipse;fillColor=#000000;strokeColor=none;html=1;sketch=0;" vertex="1" parent="1">
          <mxGeometry x="305" y="227.5" width="7" height="7" as="geometry" />
        </mxCell>
        <mxCell id="8GcMBOhhkafH-5VDX_pW-52" value="" style="shape=ellipse;fillColor=#000000;strokeColor=none;html=1;sketch=0;" vertex="1" parent="1">
          <mxGeometry x="305" y="332.5" width="7" height="7" as="geometry" />
        </mxCell>
        <mxCell id="8GcMBOhhkafH-5VDX_pW-53" value="&lt;font style=&quot;font-size: 22px;&quot;&gt;t&lt;/font&gt;" style="text;html=1;align=center;verticalAlign=middle;whiteSpace=wrap;rounded=0;" vertex="1" parent="1">
          <mxGeometry x="313" y="79.5" width="32" height="30" as="geometry" />
        </mxCell>
        <mxCell id="8GcMBOhhkafH-5VDX_pW-54" value="&lt;font style=&quot;font-size: 22px;&quot;&gt;s&lt;/font&gt;" style="text;html=1;align=center;verticalAlign=middle;whiteSpace=wrap;rounded=0;" vertex="1" parent="1">
          <mxGeometry x="349" y="168" width="32" height="30" as="geometry" />
        </mxCell>
        <mxCell id="8GcMBOhhkafH-5VDX_pW-56" value="&lt;font style=&quot;font-size: 22px;&quot;&gt;q&lt;/font&gt;" style="text;html=1;align=center;verticalAlign=middle;whiteSpace=wrap;rounded=0;" vertex="1" parent="1">
          <mxGeometry x="270" y="183" width="32" height="30" as="geometry" />
        </mxCell>
        <mxCell id="8GcMBOhhkafH-5VDX_pW-57" value="&lt;font style=&quot;font-size: 22px;&quot;&gt;C&lt;/font&gt;" style="text;html=1;align=center;verticalAlign=middle;whiteSpace=wrap;rounded=0;" vertex="1" parent="1">
          <mxGeometry x="308" y="219" width="32" height="30" as="geometry" />
        </mxCell>
        <mxCell id="8GcMBOhhkafH-5VDX_pW-58" value="&lt;font style=&quot;font-size: 22px;&quot;&gt;D&lt;/font&gt;" style="text;html=1;align=center;verticalAlign=middle;whiteSpace=wrap;rounded=0;" vertex="1" parent="1">
          <mxGeometry x="308" y="324" width="32" height="30" as="geometry" />
        </mxCell>
        <mxCell id="8GcMBOhhkafH-5VDX_pW-59" value="&lt;font style=&quot;font-size: 22px;&quot;&gt;GA&lt;/font&gt;" style="text;html=1;align=center;verticalAlign=middle;whiteSpace=wrap;rounded=0;" vertex="1" parent="1">
          <mxGeometry x="500" y="125" width="32" height="30" as="geometry" />
        </mxCell>
        <mxCell id="8GcMBOhhkafH-5VDX_pW-60" value="&lt;font style=&quot;font-size: 22px;&quot;&gt;HB&lt;/font&gt;" style="text;html=1;align=center;verticalAlign=middle;whiteSpace=wrap;rounded=0;" vertex="1" parent="1">
          <mxGeometry x="500" y="288" width="32" height="30" as="geometry" />
        </mxCell>
        <mxCell id="8GcMBOhhkafH-5VDX_pW-62" value="$$R_u$$" style="text;html=1;align=center;verticalAlign=middle;whiteSpace=wrap;rounded=0;fontSize=22;" vertex="1" parent="1">
          <mxGeometry x="628" y="181" width="34" height="30" as="geometry" />
        </mxCell>
      </root>
    </mxGraphModel>
  </diagram>
</mxfile>
